External Loads File
version=1
nRows=31
nColumns=13
Range=5.000000e-03-10 seconds
endheader
time 	forceRightX 	forceRightY 	forceRightZ 	pointRightX 	pointRightY 	pointRightZ 	forceLeftX 	forceLeftY 	forceLeftZ 	pointLeftX 	pointLeftY 	pointLeftZ 		
5.005000 -108.373682 227.898702 -0.000000 0.380011 0.441563 -0.165962 23.522060 -98.376281 -0.000000 0.143505 0.191236 -0.411205
5.010000 -129.157153 303.521953 -0.000000 0.382957 0.434072 -0.165890 15.782165 -105.967828 -0.000000 0.138466 0.199088 -0.410934
5.015000 -150.734072 381.013862 -0.000000 0.385962 0.425594 -0.165878 10.429195 -108.588913 -0.000000 0.133649 0.207590 -0.410851
5.020000 -171.498109 457.287484 -0.000000 0.389017 0.416467 -0.165861 7.524531 -106.841782 -0.000000 0.128620 0.216468 -0.410441
5.025000 -191.116675 528.946754 -0.000000 0.391849 0.406773 -0.165851 7.258360 -101.379048 -0.000000 0.124381 0.225685 -0.410343
5.030000 -207.569465 593.676525 -0.000000 0.394946 0.396651 -0.166063 9.236633 -92.936258 -0.000000 0.120687 0.235284 -0.410382
5.035000 -220.353748 649.216598 -0.000000 0.397414 0.386120 -0.165806 13.233590 -82.270777 -0.000000 0.117357 0.245159 -0.410458
5.040000 -228.306930 694.293754 -0.000000 0.399875 0.375319 -0.165962 18.804761 -70.111474 -0.000000 0.114643 0.255339 -0.410530
5.045000 -232.296806 727.867536 -0.000000 0.401901 0.364505 -0.165916 25.656955 -57.021376 -0.000000 0.112407 0.265686 -0.410589
5.050000 -232.248379 750.163211 -0.000000 0.403692 0.353550 -0.165813 33.341352 -43.464408 -0.000000 0.110665 0.276202 -0.410553
5.055000 -229.491227 761.774250 -0.000000 0.405098 0.342572 -0.165673 41.578746 -29.749566 -0.000000 0.109498 0.286796 -0.410605
5.060000 -224.499473 764.227117 -0.000000 0.406192 0.331645 -0.165619 50.182444 -16.156572 -0.000000 0.108884 0.297629 -0.410562
5.065000 -218.320503 759.357231 -0.000000 0.406908 0.320520 -0.165526 59.127784 -2.956981 -0.000000 0.108769 0.308317 -0.410578
5.070000 -210.916958 749.547009 -0.000000 0.407229 0.309450 -0.165306 68.416410 9.435353 -0.000000 0.109215 0.319283 -0.410523
5.075000 -203.106807 736.892920 -0.000000 0.406913 0.298463 -0.165129 77.985358 20.642589 -0.000000 0.110211 0.330237 -0.410428
5.080000 -195.022975 723.404886 -0.000000 0.406032 0.287726 -0.165031 87.589162 30.243003 -0.000000 0.111696 0.341209 -0.410300
5.085000 -183.823956 711.420369 -0.000000 0.404303 0.276405 -0.165560 96.933019 37.441914 -0.000000 0.113905 0.352363 -0.410239
5.090000 -174.739677 700.636294 -0.000000 0.402035 0.265752 -0.165455 105.208503 42.575053 -0.000000 0.116654 0.362676 -0.410265
5.095000 -164.065913 692.630892 -0.000000 0.398952 0.255494 -0.165274 112.044498 44.918027 -0.000000 0.120057 0.373118 -0.410234
5.100000 -151.766909 687.652181 -0.000000 0.395125 0.245459 -0.165043 116.967328 44.304978 -0.000000 0.124121 0.383328 -0.410406
5.105000 -137.369158 685.794197 -0.000000 0.390569 0.235569 -0.164879 119.625944 40.590277 -0.000000 0.129028 0.393137 -0.410563
5.110000 -120.580104 686.873229 -0.000000 0.385264 0.225856 -0.164422 119.775187 33.700966 -0.000000 0.134528 0.402660 -0.410668
5.115000 -101.329132 690.399824 -0.000000 0.379237 0.216571 -0.164115 117.247063 23.656289 -0.000000 0.141113 0.411670 -0.410642
5.120000 -80.250757 695.504343 -0.000000 0.372513 0.207878 -0.163850 111.936888 10.715434 -0.000000 0.148115 0.420339 -0.410681
5.125000 -57.684344 701.180921 -0.000000 0.365228 0.199604 -0.163602 103.912247 -4.805723 -0.000000 0.155285 0.428658 -0.410690
5.130000 -32.962319 706.399589 -0.000000 0.357358 0.191855 -0.163338 93.390241 -22.666189 -0.000000 0.163290 0.436454 -0.410639
5.135000 -6.330316 709.983766 -0.000000 0.348850 0.184504 -0.162889 80.666442 -42.396860 -0.000000 0.171819 0.443762 -0.410546
5.140000 20.757647 710.815124 -0.000000 0.340028 0.177960 -0.162597 66.179586 -63.382152 -0.000000 0.180815 0.450549 -0.410808
5.145000 48.350182 707.945168 -0.000000 0.330782 0.172103 -0.162466 50.285976 -85.249477 -0.000000 0.190339 0.456661 -0.410683
5.150000 75.246478 700.678759 -0.000000 0.321398 0.166876 -0.162563 33.388975 -107.520588 -0.000000 0.200065 0.462339 -0.410582
5.155000 101.880433 688.417554 -0.000000 0.311612 0.162167 -0.162539 15.645544 -129.681340 -0.000000 0.210096 0.467493 -0.410562
